<svg xmlns="http://www.w3.org/2000/svg" viewBox="0 0 48 48">

  <!-- === 1. Cyan outer glow === -->
  <path d="M 24 4 C 40 4 44 12 44 22 C 44 28 43 33 42 37 C 41 41 39 42 36 40 C 33 38 31 34 30 28 C 29 22 31 18 36 18 C 34 14 30 16 24 16 C 18 16 14 14 12 18 C 17 18 19 22 18 28 C 17 34 15 38 12 40 C 9 42 7 41 6 37 C 5 33 4 28 4 22 C 4 12 8 4 24 4 Z"
    fill="#5DADE2" stroke="#5DADE2" stroke-width="5" stroke-linejoin="round"/>
  <ellipse cx="24" cy="24" rx="14" ry="15"
    fill="#5DADE2" stroke="#5DADE2" stroke-width="5"/>

  <!-- === 2. Hair (BEHIND face) === -->
  <path d="M 24 4 C 40 4 44 12 44 22 C 44 28 43 33 42 37 C 41 41 39 42 36 40 C 33 38 31 34 30 28 C 29 22 31 18 36 18 C 34 14 30 16 24 16 C 18 16 14 14 12 18 C 17 18 19 22 18 28 C 17 34 15 38 12 40 C 9 42 7 41 6 37 C 5 33 4 28 4 22 C 4 12 8 4 24 4 Z"
    fill="#2a2a4e"/>

  <!-- === 3. Face === -->
  <ellipse cx="24" cy="24" rx="14" ry="15" fill="#0d0d1a"/>

  <!-- === 4. Hair crown === -->
  <path d="M 24 4 C 40 4 44 12 44 22 C 38 20 32 16 24 16 C 16 16 10 20 4 22 C 4 12 8 4 24 4 Z"
    fill="#2a2a4e"/>

  <!-- === 5. Bangs === -->
  <path d="
    M 14 22
    C 15 16 19 13 24 13
    C 29 13 33 15 35 19
    C 31 18 27 17.5 24 18
    C 20 18.5 16 20 14 22 Z
  " fill="#2a2a4e"/>

  <!-- === 6. Eyes === -->
  <polyline points="16,25 21,28.5 16,32" fill="none" stroke="#5DADE2"
    stroke-width="2.8" stroke-linecap="round" stroke-linejoin="round"/>
  <line x1="29" y1="28.5" x2="35" y2="28.5" stroke="#5DADE2"
    stroke-width="2.8" stroke-linecap="round"/>

</svg>
